<?xml version="1.0"?>
<svg xmlns="http://www.w3.org/2000/svg" xmlns:xlink="http://www.w3.org/1999/xlink" xmlns:svgjs="http://svgjs.com/svgjs" version="1.1" width="512" height="512" x="0" y="0" viewBox="0 0 64 64" style="enable-background:new 0 0 512 512" xml:space="preserve" class=""><g><g xmlns="http://www.w3.org/2000/svg"><path d="m35 16c0 .266-.105.52-.293.707l-4 4c-.187.188-.442.293-.707.293h-3v12h3c.155 0 .309.036.447.105l3.789 1.895h11.764c.551 0 1-.448 1-1s-.449-1-1-1h-7v-2h7c.551 0 1-.448 1-1s-.449-1-1-1h-7v-2h7c.551 0 1-.448 1-1s-.449-1-1-1h-7v-2h7c.551 0 1-.448 1-1s-.449-1-1-1h-8c-.552 0-1-.447-1-1v-7c0-1.103-.897-2-2-2z" fill="#ffffff" data-original="#000000" style="" class=""/><path d="m17 19h8v16h-8z" fill="#ffffff" data-original="#000000" style="" class=""/><path d="m32 41c-5.514 0-10 4.486-10 10s4.486 10 10 10 10-4.486 10-10-4.486-10-10-10zm0 9c2.206 0 4 1.794 4 4 0 1.859-1.28 3.411-3 3.858v2.142h-2v-2.142c-1.72-.447-3-1.999-3-3.858h2c0 1.103.897 2 2 2s2-.897 2-2-.897-2-2-2c-2.206 0-4-1.794-4-4 0-1.859 1.28-3.411 3-3.858v-2.142h2v2.142c1.72.447 3 1.999 3 3.858h-2c0-1.103-.897-2-2-2s-2 .897-2 2 .897 2 2 2z" fill="#ffffff" data-original="#000000" style="" class=""/><path d="m51 41c-3.36 0-6.497 1.726-8.339 4.516.85 1.646 1.339 3.508 1.339 5.484s-.489 3.837-1.338 5.483c1.842 2.796 4.957 4.517 8.338 4.517 5.514 0 10-4.486 10-10s-4.486-10-10-10zm0 9c2.206 0 4 1.794 4 4 0 1.859-1.28 3.411-3 3.858v2.142h-2v-2.142c-1.72-.447-3-1.999-3-3.858h2c0 1.103.897 2 2 2s2-.897 2-2-.897-2-2-2c-2.206 0-4-1.794-4-4 0-1.859 1.28-3.411 3-3.858v-2.142h2v2.142c1.72.447 3 1.999 3 3.858h-2c0-1.103-.897-2-2-2s-2 .897-2 2 .897 2 2 2z" fill="#ffffff" data-original="#000000" style="" class=""/><path d="m13 41c-5.514 0-10 4.486-10 10s4.486 10 10 10c3.359 0 6.497-1.726 8.338-4.517-.849-1.645-1.338-3.507-1.338-5.483 0-1.977.489-3.838 1.339-5.484-1.842-2.79-4.98-4.516-8.339-4.516zm0 9c2.206 0 4 1.794 4 4 0 1.859-1.28 3.411-3 3.858v2.142h-2v-2.142c-1.72-.447-3-1.999-3-3.858h2c0 1.103.897 2 2 2s2-.897 2-2-.897-2-2-2c-2.206 0-4-1.794-4-4 0-1.859 1.28-3.411 3-3.858v-2.142h2v2.142c1.72.447 3 1.999 3 3.858h-2c0-1.103-.897-2-2-2s-2 .897-2 2 .897 2 2 2z" fill="#ffffff" data-original="#000000" style="" class=""/><path d="m34 1h2v5h-2z" fill="#ffffff" data-original="#000000" style="" class=""/><path d="m38.172 4h5.657v2h-5.657z" transform="matrix(.707 -.707 .707 .707 8.473 30.456)" fill="#ffffff" data-original="#000000" style="" class=""/><path d="m28 2.172h2v5.657h-2z" transform="matrix(.707 -.707 .707 .707 4.958 21.971)" fill="#ffffff" data-original="#000000" style="" class=""/></g></g></svg>
