<?xml version="1.0" encoding="iso-8859-1"?>
<!-- Generator: Adobe Illustrator 19.0.0, SVG Export Plug-In . SVG Version: 6.00 Build 0)  -->
<svg version="1.1" id="Capa_1" xmlns="http://www.w3.org/2000/svg" xmlns:xlink="http://www.w3.org/1999/xlink" x="0px" y="0px"
	 viewBox="0 0 511.981 511.981" style="enable-background:new 0 0 511.981 511.981;" xml:space="preserve">
<path style="fill:#5F6E9B;" d="M275.885,142.514l-64.498-17.402c-19.974-5.389-40.536,6.435-45.925,26.409L120.018,319.95
	c-3.029,11.227-3.057,23.053-0.081,34.293l25.779,97.289c0.026,0.097-0.048,0.001-0.148,0H59.674c-0.053,0-0.107,0-0.16,0
	c-16.391,0-29.721,13.066-29.806,29.476c-0.086,16.464,13.19,30.534,29.654,30.62h124.82c0.052,0,0.104,0,0.157,0
	c19.011-0.001,33.922-17.739,28.701-37.884l-31.084-119.912c-0.029-0.113,70.907,17.814,70.929,17.733l49.408-183.125
	C307.684,168.465,295.86,147.903,275.885,142.514z"/>
<path style="fill:#55879B;" d="M482.273,86.134c0,6.659-5.158,12.181-11.803,12.631l-69.578,4.725V39.95l69.578,4.725
	c6.644,0.451,11.803,5.972,11.803,12.631V86.134z"/>
<polygon style="fill:#E4F2F6;" points="449.808,43.271 400.892,39.95 400.892,103.49 449.808,100.169 "/>
<path style="fill:#55879B;" d="M395.095,41.544c-5.03,0-9.107-4.077-9.107-9.107V9.904c0-5.03,4.077-9.107,9.107-9.107
	c5.03,0,9.107,4.077,9.107,9.107v22.534C404.202,37.467,400.125,41.544,395.095,41.544z"/>
<path style="fill:#A5C8CD;" d="M417.51,121.803H372.68c-4.891,0-8.856-3.964-8.856-8.856V30.492c0-4.891,3.964-8.856,8.856-8.856
	h44.829c4.891,0,8.856,3.964,8.856,8.856v82.456C426.365,117.839,422.4,121.803,417.51,121.803z"/>
<path style="fill:#414B82;" d="M288.752,486.414L271.605,376.61l-103.947-26.364c-16.323-4.095-26.848-18.986-24.46-35.276
	c2.387-16.29,17.524-27.562,33.818-25.172l124.975,31.009c12.927,1.895,23.114,11.987,25.13,24.896l20.537,131.513
	c2.54,16.267-8.587,31.874-24.853,34.413C306.611,514.16,291.303,502.75,288.752,486.414z"/>
<path style="fill:#64AFFF;" d="M275.885,142.514l-64.498-17.402c-19.974-5.389-40.536,6.435-45.925,26.409L120.018,319.95
	c-1.569,5.817-2.325,11.794-2.283,17.768c0,0,31.588,7.932,64.222,16.115l86.846-41.261l33.492-124.132
	C307.684,168.465,295.86,147.903,275.885,142.514z"/>
<g>
	<circle style="fill:#FFB69E;" cx="271.764" cy="55.452" r="55.452"/>
	<path style="fill:#FFB69E;" d="M310.135,204.002l-87.666-14.411c-13.538-2.225-22.708-15.005-20.483-28.542
		c2.225-13.538,15.005-22.709,28.542-20.483l72.075,11.849l47.81-69.769c7.756-11.317,23.217-14.204,34.534-6.45
		c11.317,7.756,14.205,23.217,6.45,34.534l-56.741,82.802C329.189,201.511,319.615,205.561,310.135,204.002z"/>
</g>
<path style="fill:#78BEFF;" d="M280.36,148.757l-49.831-8.192c-13.537-2.226-26.317,6.945-28.542,20.483
	c-2.225,13.538,6.945,26.317,20.483,28.542l51.214,8.419L280.36,148.757z"/>
<g>
</g>
<g>
</g>
<g>
</g>
<g>
</g>
<g>
</g>
<g>
</g>
<g>
</g>
<g>
</g>
<g>
</g>
<g>
</g>
<g>
</g>
<g>
</g>
<g>
</g>
<g>
</g>
<g>
</g>
</svg>
