<?xml version="1.0" encoding="iso-8859-1"?>
<!-- Generator: Adobe Illustrator 19.0.0, SVG Export Plug-In . SVG Version: 6.00 Build 0)  -->
<svg version="1.1" id="Layer_1" xmlns="http://www.w3.org/2000/svg" xmlns:xlink="http://www.w3.org/1999/xlink" x="0px" y="0px"
	 viewBox="0 0 299.289 299.289" style="enable-background:new 0 0 299.289 299.289;" xml:space="preserve">
<g id="XMLID_1332_">
	<g>
		<g>
			<path d="M280.718,31.278l-28.133-1.91v-7.025c0-3.181-2.579-5.76-5.76-5.76h-7.686V9.1c0-3.589-2.911-6.5-6.5-6.5
				s-6.5,2.911-6.5,6.5v7.483h-7.686c-3.181,0-5.76,2.579-5.76,5.76v4.885c5.067,0.341,10.111,1.995,14.604,5.073
				c13.382,9.17,16.797,27.452,7.626,40.834l-5.03,7.34h16.932c3.181,0,5.76-2.579,5.76-5.76v-7.025l28.133-1.91
				c4.238-0.288,7.529-3.81,7.529-8.057V39.335C288.247,35.087,284.956,31.565,280.718,31.278z"/>
			<path d="M144.294,63.722c12.009,3.24,24.257-0.714,32.183-9.224c2.153-2.311,3.984-4.959,5.407-7.891
				c0.878-1.81,1.607-3.724,2.15-5.738c4.664-17.285-5.568-35.078-22.853-39.742s-35.078,5.568-39.742,22.853
				S127.01,59.058,144.294,63.722z"/>
			<path d="M218.995,44.416c-6.692-4.585-15.832-2.878-20.417,3.813L169.86,90.137l-47.617-0.678l28.919-7.214l-33.717-9.097
				c-11.677-3.151-23.696,3.762-26.846,15.438l-26.301,97.477c-1.944,7.206-1.973,14.794-0.083,22.014l14.615,55.843l-50.069-0.262
				c-0.031-0.001-0.063-0.001-0.094-0.001c-9.69,0-17.571,7.83-17.621,17.532c-0.051,9.733,7.798,17.665,17.532,17.716l72.966,0.382
				c0.031,0.001,0.061,0.001,0.092,0.001c5.435-0.001,10.57-2.508,13.909-6.802c3.359-4.317,4.523-9.949,3.151-15.243
				l-16.661-64.299l50.439,7.393l10.002,64.043c1.503,9.626,10.527,16.196,20.132,14.693c9.617-1.502,16.195-10.515,14.693-20.132
				l-12.006-76.877c-1.191-7.632-7.214-13.599-14.857-14.719l-19.889-2.915l14.44-53.52l-43.163-12.083l55.491,0.79
				c0.07,0.001,0.14,0.001,0.21,0.001c4.839,0,9.374-2.385,12.115-6.384l33.168-48.404
				C227.393,58.142,225.686,49.001,218.995,44.416z"/>
		</g>
	</g>
</g>
<g>
</g>
<g>
</g>
<g>
</g>
<g>
</g>
<g>
</g>
<g>
</g>
<g>
</g>
<g>
</g>
<g>
</g>
<g>
</g>
<g>
</g>
<g>
</g>
<g>
</g>
<g>
</g>
<g>
</g>
</svg>
