<svg height="512pt" viewBox="0 0 512 512" width="512pt" xmlns="http://www.w3.org/2000/svg" xmlns:xlink="http://www.w3.org/1999/xlink"><linearGradient id="a" gradientTransform="matrix(1 0 0 -1 0 -17294)" gradientUnits="userSpaceOnUse" x1="0" x2="512" y1="-17550" y2="-17550"><stop offset="0" stop-color="#00f38d"/><stop offset="1" stop-color="#009eff"/></linearGradient><path d="m512 256c0 141.386719-114.613281 256-256 256s-256-114.613281-256-256 114.613281-256 256-256 256 114.613281 256 256zm0 0" fill="url(#a)"/><path d="m256 56c-110.28125 0-200 89.542969-200 199.609375v.78125c0 110.066406 89.71875 199.609375 200 199.609375s200-89.542969 200-199.609375v-.78125c0-110.066406-89.71875-199.609375-200-199.609375zm170 199.609375v.78125c0 1.292969-.019531 2.582031-.050781 3.867187l-7.316407 5.53125c-14.9375 11.285157-39.421874 26.996094-73.589843 40.238282 30.816406-69.828125 35.460937-130.066406 34.234375-167.089844 28.941406 30.425781 46.722656 71.515625 46.722656 116.671875zm-199 75.355469c-15.296875-15.5-30.765625-33.886719-45.609375-55.664063l-4.332031-6.351562c5.375-20.851563 13.070312-43.289063 23.90625-66.894531l4.410156-9.613282c21.78125-5.125 46.300781-8.84375 73.53125-10.027344l8.789062-.378906c14.738282 16.117188 29.570313 35.15625 43.613282 57.597656l3.894531 6.222657c-6.03125 20.613281-14.421875 42.742187-25.988281 65.886719l-3.472656 6.945312c-20.859376 5.441406-44.234376 9.625-70.179688 11.621094zm119.898438-218.621094.585937 4.488281c2.089844 16.097657 4.164063 47.5625-2.878906 88.527344-43.257813-62.085937-91.609375-97.179687-124.25-115.597656 11.5-2.457031 23.421875-3.761719 35.644531-3.761719 33.410156 0 64.59375 9.671875 90.898438 26.34375zm-166.195313-8.769531 1.957031.84375c15.167969 6.523437 43.894532 21.183593 76.050782 49.253906-77.316407 6.667969-132.933594 32.140625-165.011719 51.417969 13.933593-44.453125 45.75-81.09375 87.003906-101.515625zm-94.703125 152.816406v-.78125c0-3.308594.105469-6.59375.292969-9.855469l11.714843-7.875c14.574219-9.796875 37.886719-23.164062 69.566407-34.371094-30.375 72.554688-33.632813 134.28125-30.941407 173.523438-31.238281-30.769531-50.632812-73.484375-50.632812-120.640625zm83.753906 146.105469-1.277344-9.058594c-2.617187-18.542969-4.472656-47.589844.546876-83.914062 45.480468 60.359374 94.890624 93.6875 129.09375 111.207031-13.472657 3.4375-27.585938 5.269531-42.117188 5.269531-31.460938 0-60.945312-8.582031-86.246094-23.503906zm167.261719 2.976562-7.984375-3.375c-17.292969-7.304687-43.222656-20.695312-71.851562-43.785156 76.097656-9.171875 130.304687-35.769531 162.707031-56.808594-12.402344 44.777344-42.777344 82.191406-82.871094 103.96875zm0 0" fill="#fff"/></svg>